<svg xmlns="http://www.w3.org/2000/svg" xmlns:xlink="http://www.w3.org/1999/xlink" width="50.254" height="22.034" viewBox="0 0 50.254 22.034">
  <defs>
    <clipPath id="clip-path">
      <rect id="Rectangle_23" data-name="Rectangle 23" width="50.254" height="22.034" fill="#93cc58"/>
    </clipPath>
  </defs>
  <g id="Group_19" data-name="Group 19" clip-path="url(#clip-path)">
    <path id="Path_39" data-name="Path 39" d="M7.94,21.568c4.517,1.293,7.649-.581,10.773-2.053,3.02-1.423,6.408-2.6,10.842-.909,2.108.8,3.909,2.017,6.184,2.789a10.527,10.527,0,0,0,10.729-2.14A10.512,10.512,0,0,0,49.8,14.148,10.866,10.866,0,0,0,41.852.381a11.293,11.293,0,0,0-5.882.152c-3.54,1.111-6.727,3.8-10.769,3.851C20.257,4.45,16.3.116,11.246,0A11.131,11.131,0,0,0,1.314,5.848,10.818,10.818,0,0,0,2.493,17.9,10.78,10.78,0,0,0,7.94,21.568M39.225,5.949a5.107,5.107,0,1,1-5.107,5.107,5.107,5.107,0,0,1,5.107-5.107m-28.182,0a5.107,5.107,0,1,1-5.107,5.107,5.107,5.107,0,0,1,5.107-5.107" transform="translate(0 0.001)" fill="#93cc58"/>
  </g>
</svg>
