<svg xmlns="http://www.w3.org/2000/svg" width="51.192" height="51.192" viewBox="0 0 51.192 51.192">
  <path id="Exclusion_1" data-name="Exclusion 1" d="M25.6,51.192a25.785,25.785,0,0,1-5.159-.52,25.456,25.456,0,0,1-9.153-3.851A25.671,25.671,0,0,1,2.011,35.559a25.467,25.467,0,0,1-1.491-4.8,25.846,25.846,0,0,1,0-10.317,25.456,25.456,0,0,1,3.851-9.153A25.671,25.671,0,0,1,15.633,2.011,25.467,25.467,0,0,1,20.438.52a25.846,25.846,0,0,1,10.317,0,25.456,25.456,0,0,1,9.153,3.851,25.671,25.671,0,0,1,9.274,11.262,25.467,25.467,0,0,1,1.491,4.8,25.845,25.845,0,0,1,0,10.317,25.456,25.456,0,0,1-3.851,9.153,25.671,25.671,0,0,1-11.262,9.274,25.468,25.468,0,0,1-4.8,1.491A25.785,25.785,0,0,1,25.6,51.192Zm0-39.383H25.42c-3.526,0-4.012.016-5.506.082a10.232,10.232,0,0,0-3.349.641,7.053,7.053,0,0,0-4.033,4.033,10.16,10.16,0,0,0-.641,3.343c-.067,1.506-.083,2-.083,5.689s.016,4.179.083,5.682a10.228,10.228,0,0,0,.641,3.347,7.058,7.058,0,0,0,4.031,4.033,10.2,10.2,0,0,0,3.347.641c1.5.067,2,.083,5.686.083s4.179-.016,5.684-.083a10.236,10.236,0,0,0,3.349-.641,7.06,7.06,0,0,0,4.031-4.033A10.273,10.273,0,0,0,39.3,31.28c.067-1.5.083-2,.083-5.684s-.016-4.181-.083-5.686a10.251,10.251,0,0,0-.641-3.345,7.055,7.055,0,0,0-4.033-4.033,10.213,10.213,0,0,0-3.349-.641c-1.5-.067-2-.083-5.682-.083h0ZM25.6,36.893c-3.646,0-4.087-.014-5.572-.081a7.611,7.611,0,0,1-2.559-.476,4.574,4.574,0,0,1-2.619-2.616,7.622,7.622,0,0,1-.474-2.559c-.066-1.454-.079-1.89-.079-5.572s.014-4.115.079-5.568a7.613,7.613,0,0,1,.476-2.561,4.565,4.565,0,0,1,2.618-2.616,7.606,7.606,0,0,1,2.559-.476c1.277-.059,1.76-.076,4.334-.077v0H25.6c3.723,0,4.152.014,5.57.079a7.649,7.649,0,0,1,2.561.474,4.566,4.566,0,0,1,2.616,2.618,7.559,7.559,0,0,1,.474,2.559c.067,1.443.081,1.877.081,5.568s-.014,4.127-.081,5.57a7.652,7.652,0,0,1-.474,2.559,4.57,4.57,0,0,1-2.618,2.614,7.554,7.554,0,0,1-2.559.476C29.683,36.879,29.242,36.893,25.6,36.893Zm0-18.377h0a7.056,7.056,0,1,0,2.758.556,7.035,7.035,0,0,0-2.758-.556Zm7.359-1.933a1.654,1.654,0,1,0,1.654,1.654A1.656,1.656,0,0,0,32.957,16.583ZM25.6,30.192a4.6,4.6,0,1,1,3.25-1.346A4.566,4.566,0,0,1,25.6,30.192Z" fill="#fff"/>
</svg>
