<svg xmlns="http://www.w3.org/2000/svg" xmlns:xlink="http://www.w3.org/1999/xlink" width="158.378" height="98.863" viewBox="0 0 158.378 98.863">
  <defs>
    <clipPath id="clip-path">
      <rect id="Rectangle_9" data-name="Rectangle 9" width="158.378" height="98.863" transform="translate(0 0)" fill="none"/>
    </clipPath>
  </defs>
  <g id="Group_7" data-name="Group 7" transform="translate(0 -0.005)">
    <g id="Group_9" data-name="Group 9" transform="translate(0 0.005)" clip-path="url(#clip-path)">
      <path id="Path_35" data-name="Path 35" d="M143.589,95.31H129.774v-24.3l14.462-14.462a1.779,1.779,0,0,0-2.516-2.516L129.774,65.975V38.061L135.8,32.03a1.779,1.779,0,1,0-2.516-2.516l-3.515,3.515V17.941a1.779,1.779,0,0,0-3.558,0V37.324h0V49.089l-9.411-9.411a1.779,1.779,0,1,0-2.516,2.516l11.927,11.927V95.31h-28.2a4.035,4.035,0,0,0,.273-1.962,14.727,14.727,0,0,0,2.631-2.542,11.8,11.8,0,0,0,4.092.948q.144,0,.284,0a6.328,6.328,0,0,0,3.642-1.011,3.423,3.423,0,0,0,1.6-2.524c2.713-1.669,4.128-4.789,3.6-7.062a3.119,3.119,0,0,0-1.389-2.007,8.951,8.951,0,0,0-8.518-10.447,1.779,1.779,0,0,0-1.516,2.817c1.9,2.636,2.6,5.128,2.047,7.208a5.8,5.8,0,0,1-1.64,2.679,16.3,16.3,0,0,0-2.1-5.473,21.405,21.405,0,0,0-5-5.632l-.048-.037c-1.726-1.28-2.13-4.312-2.165-6.631a28.215,28.215,0,0,1,.506-5.6,31.521,31.521,0,0,0,.787-4.514,8.518,8.518,0,0,0,2.871-2.256c.548-.659,1.789-2.38,1.5-4.115A2.79,2.79,0,0,0,96.205,44.9a1.78,1.78,0,0,0-.761.253,5.566,5.566,0,0,1-3.031.634c-.477-.319-1.33-.874-2.293-1.424-2.9-1.655-4.171-1.781-4.956-1.706a1.786,1.786,0,0,0-.367.075c-.349.11-.735.278-1.145.456a8.817,8.817,0,0,1-1.684.609c-.7-.173-2.683-.843-3.846-1.252a2.523,2.523,0,0,0-2.2.157,4.05,4.05,0,0,0-1.75,3.152,6.438,6.438,0,0,0,2.512,5.84L78.38,53l.028.055q.03.06.065.117a7.467,7.467,0,0,0,1.793,2,4.99,4.99,0,0,1-.615,1.757,7.818,7.818,0,0,0-1.008,4.275,1.779,1.779,0,0,0,1.773,1.655c.042,0,.084,0,.126,0a1.779,1.779,0,0,0,1.651-1.9,4.444,4.444,0,0,1,.659-2.473,11.342,11.342,0,0,0,.7-1.691,9.5,9.5,0,0,0,1.908.342l.191-3.553h.01a6.861,6.861,0,0,1-2.377-.69,4.35,4.35,0,0,1-1.747-1.525l-.175-.343a1.78,1.78,0,0,0-.5-.6L78.86,48.874a2.869,2.869,0,0,1-1.155-2.581q.008-.064.018-.123c1.079.371,2.821.955,3.568,1.119l.038.008a6.707,6.707,0,0,0,3.74-.849c.193-.084.391-.17.554-.236a19.911,19.911,0,0,1,5.148,2.758,1.778,1.778,0,0,0,.751.3,9.9,9.9,0,0,0,3.644-.206l-.064.072a4.4,4.4,0,0,1-2.109,1.37,1.78,1.78,0,0,0-1.353,1.632,29.31,29.31,0,0,1-.781,5.016h0a31.384,31.384,0,0,0-.618,6.349c.038,4.619,1.242,7.849,3.578,9.6,2.247,1.795,5.989,5.6,5.989,11.021,0,4.343-4.443,6.91-4.482,6.932a1.779,1.779,0,0,0-.62,2.535.509.509,0,0,1-.034.468.55.55,0,0,1-.492.285H83.006a1.064,1.064,0,0,1,.354-.551c.566-.4,3.043-.538,5.2-.3a1.779,1.779,0,0,0,1.4-3.077c-1.194-1.1-3.515-3.867-3.549-5.811a1.738,1.738,0,0,0,0-.188c0-.048.006-.1.012-.142l0-.012a4.56,4.56,0,0,1,3.381-3.737,1.779,1.779,0,0,0-.717-3.485,7.858,7.858,0,0,0-4.464,2.79c-.437-.743-.9-1.421-1.334-2.064A12.109,12.109,0,0,1,81.064,73.3l.221-.015a4.736,4.736,0,0,1,1.776.627,1.779,1.779,0,0,0,1.768-3.088,7.861,7.861,0,0,0-3.736-1.092c-.581.031-1.174.094-1.747.154a19.935,19.935,0,0,1-2.174.153,2.5,2.5,0,0,1-.862-.114,25.121,25.121,0,0,1-1.469-4.382c-.17-.664-.332-1.291-.547-1.881-.784-2.146-2.32-2.1-2.772-2.034a2.672,2.672,0,0,0-2.134,2.6,5.748,5.748,0,0,1-.814,2.381,4.381,4.381,0,0,1-.371-.637,9.53,9.53,0,0,1,1.24-3.618,5.24,5.24,0,0,1,1.9-2.214c2.127.005,2.429.456,2.749.933a20.253,20.253,0,0,1,1.662,3.169,13.372,13.372,0,0,0,.944,1.87c1.228,1.862,4.052,1.381,4.888,1.189a1.779,1.779,0,0,0-.79-3.469,4.511,4.511,0,0,1-1.261.093c-.156-.29-.339-.7-.531-1.132a23.517,23.517,0,0,0-1.957-3.7c-1.2-1.782-2.859-2.508-5.741-2.508a4.476,4.476,0,0,0-3.128,1.534,13.307,13.307,0,0,0-3.539,8.119,1.776,1.776,0,0,0,.049.411,8.736,8.736,0,0,0,2.107,3.388c.023.024.046.047.071.07a2.375,2.375,0,0,0,2.526.458,5.209,5.209,0,0,0,2.453-2.485,26.265,26.265,0,0,0,1.273,3.42l.023.049a3.764,3.764,0,0,0,3.284,2.016A9.16,9.16,0,0,0,77.5,73.6a14.754,14.754,0,0,0,2.854,6.177,15.132,15.132,0,0,1,2.5,4.917,10.044,10.044,0,0,0,1.976,5.187,7.071,7.071,0,0,0-3.509,1A5.32,5.32,0,0,0,79.3,95.31H65.5a6.094,6.094,0,0,0,.887-3.623L64.939,71.43c0-.051,0-.1,0-.153,0-.188-.013-.35-.025-.487l0-.032c0-.037-.008-.073-.013-.109,0-.019,0-.038-.007-.056s-.006-.034-.008-.051l0-.011a6.143,6.143,0,0,0-1.556-3.24l-9.884-11.92-.493-5a5.308,5.308,0,0,0,1.656-.928l10.38-8.579a7.269,7.269,0,0,0,2.644-4.489A4.585,4.585,0,0,0,66.5,32.962c-.857-1.017-4.385-3.382-7.193-5.188-1.418-.912-6.147-3.918-7.451-4.317l-.012,0a9.035,9.035,0,0,0-6.043.211l-.06.028c-2.927,1.43-6.918,1.024-9.678.168q-.081-.025-.165-.043a25.589,25.589,0,0,0-5.428-.53l-6.143.061L18.8,11.225l-.014-.03c-.087-.181-.183-.36-.288-.532a5.258,5.258,0,0,0-1.078-1.325l6.2-3.715a1.779,1.779,0,0,0-1.83-3.052l-1.267.759V1.784a1.779,1.779,0,0,0-3.558,0v3.68L12.19,8.327a5.757,5.757,0,0,0-.555.215l-.008,0a5.414,5.414,0,0,0-1.5,1.021l-5.737,3.44-.015.009-3.505,2.1a1.779,1.779,0,1,0,1.83,3.051L4.14,17.3l.1.422A1.779,1.779,0,1,0,7.7,16.88l-.365-1.493,1.258-.754a5.452,5.452,0,0,0,.363,1.081l6.786,14.906,0,.01.113.245q.017.037.036.074l.009.018c.057.109.121.233.209.376a5.381,5.381,0,0,0,4.019,2.548l.077.007,10.06.67,2.787,25.976L16.726,88.985a6.966,6.966,0,0,0-.329.646,6.131,6.131,0,0,0,.378,5.679H12.222a1.779,1.779,0,1,0,0,3.558H143.589a1.779,1.779,0,1,0,0-3.558M94.3,58.054l0-.009c0,.015-.007.026-.009.034l.007-.025m13.894,21.6a9.9,9.9,0,0,0-.183-5.515q.057.066.112.135c1.063,1.343,1.365,3.336.9,5.922a1.779,1.779,0,0,0,1.655,2.092,3.241,3.241,0,0,1-.352,1.114,4.476,4.476,0,0,1-2.621,2.232,1.779,1.779,0,0,0-1.124,2.355,5.589,5.589,0,0,1-3.866-.3,10.065,10.065,0,0,0,.531-2.014,9.874,9.874,0,0,0,4.951-6.022M51.514,36.385l1.262.7-1.1.926ZM19.648,91.078a3.4,3.4,0,0,1,.162-.318L36.432,61.814c0-.008.008-.016.012-.024.017-.031.033-.062.048-.094s.021-.043.031-.065.025-.062.036-.094.018-.048.026-.072.017-.059.025-.089.015-.054.02-.081.01-.056.014-.083.01-.06.013-.091,0-.051.006-.077,0-.067,0-.1,0-.048,0-.072,0-.07-.006-.1c0-.009,0-.018,0-.027L33.649,32.7c0-.007,0-.014,0-.021,0-.037-.011-.074-.018-.111s-.008-.044-.012-.066-.017-.069-.027-.1-.013-.047-.02-.069-.022-.06-.034-.089-.019-.051-.03-.075-.025-.051-.038-.077-.026-.053-.041-.078-.029-.047-.043-.07-.031-.05-.048-.075-.035-.046-.053-.069-.033-.044-.051-.064-.044-.048-.067-.072-.032-.034-.048-.05-.055-.05-.084-.074l-.043-.037c-.031-.025-.064-.048-.1-.071l-.04-.028c-.034-.022-.069-.042-.105-.062l-.043-.024c-.034-.018-.069-.033-.1-.049l-.055-.024c-.031-.012-.063-.023-.1-.034s-.048-.017-.073-.024-.056-.014-.084-.021-.06-.015-.091-.02l-.076-.011c-.034,0-.068-.009-.1-.012l-.023,0L20.492,30.35a1.845,1.845,0,0,1-1.345-.869c-.019-.031-.044-.079-.075-.138l-.094-.2-6.786-14.9a1.84,1.84,0,0,1-.052-1.418,1.86,1.86,0,0,1,.255-.466l1.2-.721a1.665,1.665,0,0,1,1.821.812l.033.056c.043.07.084.144.12.219L21.55,25.842l0,.005.013.029c.006.013.013.024.019.037.018.036.036.073.056.108s.026.042.038.062.034.054.053.081.036.049.055.072.032.041.049.061.044.049.067.073l.05.051c.024.023.048.045.073.066l.057.048c.024.019.048.037.073.054l.07.048.068.041c.028.016.056.032.085.046l.062.03c.032.015.064.029.1.041l.061.022c.033.012.067.023.1.032l.069.017c.032.008.063.015.1.021l.086.013.082.01c.035,0,.071,0,.107.005l.048,0h.051l7.267-.072a21.953,21.953,0,0,1,4.589.439,21.584,21.584,0,0,0,6.043.909,14.056,14.056,0,0,0,6.13-1.288,5.446,5.446,0,0,1,3.537-.05,68.485,68.485,0,0,1,6.622,3.938,54.716,54.716,0,0,1,6.353,4.461,1.018,1.018,0,0,1,.3.8,3.77,3.77,0,0,1-1.371,2.063L52.332,46.7a1.742,1.742,0,0,1-1.139.4c-.047,0-.095-.007-.142-.008a1.746,1.746,0,0,1-.964-3.074l1.248-1.054q.064-.049.123-.1l7.155-6.045a1.779,1.779,0,1,0-2.3-2.718l-.631.533L50.258,31.63l-.008,0c-.042-.023-.085-.043-.129-.063l-.03-.014c-.05-.021-.1-.04-.154-.056l-.012,0c-.051-.016-.1-.029-.156-.04l-.015,0c-.032-.007-.065-.01-.1-.015s-.05-.009-.076-.011l-.058,0c-.04,0-.079-.006-.119-.006l-.053,0c-.042,0-.083,0-.124.006h-.01c-.02,0-.039.006-.059.009s-.069.009-.1.016-.06.014-.09.021-.051.012-.076.02-.066.022-.1.033l-.064.024c-.032.013-.063.028-.094.043l-.064.031c-.028.015-.055.031-.082.047s-.046.027-.069.042-.045.032-.068.048-.05.036-.074.056-.037.032-.056.048-.05.044-.074.068-.033.034-.049.052-.046.049-.067.075-.033.043-.05.065-.036.047-.053.072-.038.061-.057.092-.021.032-.03.048l0,.008c-.021.039-.04.08-.059.121-.006.013-.013.026-.018.039-.018.043-.034.087-.049.132,0,.011-.009.022-.012.034-.011.036-.019.073-.028.11,0,.02-.011.04-.015.061s0,.031-.007.046c-.008.043-.015.085-.019.128,0,.008,0,.017,0,.025,0,.05-.007.1-.008.151,0,.012,0,.024,0,.037,0,.047,0,.094.007.14,0,0,0,.006,0,.009l.757,7.421-.6.5a5.307,5.307,0,0,0,1.572,9.028l.585,5.939a1.777,1.777,0,0,0,.052.282c0,.018.008.037.014.055s.015.043.023.065.022.065.034.1.016.036.024.053c.015.034.031.069.048.1.009.017.019.033.029.05.019.034.038.067.06.1l.034.048c.022.031.045.062.069.092l.015.021L60.614,69.6q.036.044.075.085a2.6,2.6,0,0,1,.663,1.338c0,.018,0,.035.006.053.008.107.014.217.014.306,0,.014,0,.027,0,.041s0,.025,0,.037,0,.026,0,.039l1.458,20.438a2.568,2.568,0,0,1-5.081.677l-.007-.032a2.223,2.223,0,0,1-.04-.288l0-.026L55.922,72.72c0-.017-.005-.034-.007-.051,0-.039-.009-.078-.017-.117,0-.024-.011-.047-.016-.071s-.015-.066-.024-.1-.017-.051-.026-.077-.02-.059-.031-.087-.023-.053-.035-.079-.024-.053-.037-.079-.03-.054-.046-.08-.027-.047-.042-.07-.04-.057-.061-.085-.027-.038-.042-.056-.055-.064-.084-.1c-.01-.011-.019-.022-.029-.033l-.009-.009,0,0-9.5-9.755-.027-.026q-.037-.036-.075-.07l-.066-.055-.066-.05c-.029-.021-.058-.041-.088-.059l-.03-.02-.029-.015c-.033-.019-.065-.037-.1-.053l-.062-.03c-.031-.014-.063-.027-.1-.039l-.073-.027-.086-.026-.086-.022-.078-.015c-.031-.006-.062-.011-.093-.015l-.076-.007c-.031,0-.063,0-.094-.006h-.08l-.088,0-.089.009-.077.01c-.033.005-.065.012-.1.019l-.067.015c-.034.009-.067.019-.1.03l-.062.021c-.033.012-.065.025-.1.039l-.064.029c-.029.014-.057.029-.085.045l-.071.041-.071.046c-.027.018-.053.037-.079.057l-.057.046c-.028.023-.055.047-.082.072l-.025.022-.025.027c-.024.025-.048.05-.07.076s-.037.043-.055.066-.034.044-.051.067-.04.057-.059.087c-.007.01-.014.02-.021.03L24.191,93.44a2.565,2.565,0,0,1-3.517.883,2.584,2.584,0,0,1-1.026-3.245m7.59,4.2L44.972,66l7.463,7.667,1.725,18.911a5.75,5.75,0,0,0,.1.736,6.082,6.082,0,0,0,.78,1.993H27.217l.021-.034" transform="translate(-0.001 -0.005)" fill="#252525"/>
      <path id="Path_36" data-name="Path 36" d="M1197.826,95.337a12.521,12.521,0,0,0-10.281-19.672q-.447,0-.89.031a12.524,12.524,0,1,0-24.22-.017q-.3-.015-.609-.015A12.522,12.522,0,0,0,1151.7,95.558a12.643,12.643,0,0,0-3.907,3.408,12.525,12.525,0,0,0,10.012,20.05q.439,0,.877-.031a12.529,12.529,0,0,0,11.948,8.766,1.779,1.779,0,1,0,0-3.558,8.931,8.931,0,0,1-8.843-7.48,1.779,1.779,0,0,0-2.122-1.448,8.973,8.973,0,0,1-10.826-8.773,8.915,8.915,0,0,1,6.354-8.58,1.779,1.779,0,0,0,.667-3.03,8.968,8.968,0,0,1,8.9-15.167,1.779,1.779,0,0,0,2.1-2.6,8.966,8.966,0,1,1,15.3.11,1.779,1.779,0,0,0,2.151,2.6,8.967,8.967,0,0,1,9.309,14.958,1.779,1.779,0,0,0,.759,3.03,8.968,8.968,0,0,1-2.26,17.646l-.126,0h-.062a1.779,1.779,0,0,0-1.748,1.449,8.967,8.967,0,0,1-8.809,7.289,1.779,1.779,0,1,0,0,3.558,12.533,12.533,0,0,0,11.958-8.793,12.528,12.528,0,0,0,4.493-23.62" transform="translate(-1046.266 -54.779)" fill="#252525"/>
      <path id="Path_37" data-name="Path 37" d="M384.207,85a8.637,8.637,0,1,0-4.157-5.139A8.589,8.589,0,0,0,384.207,85m-.336-10.013a5.045,5.045,0,0,1,3.022-2.444,5.047,5.047,0,0,1,3.865.408,5.045,5.045,0,0,1,2.444,3.022h0a5.078,5.078,0,1,1-9.331-.986" transform="translate(-346.866 -62.83)" fill="#252525"/>
    </g>
  </g>
</svg>
