<svg id="Group_1123" data-name="Group 1123" xmlns="http://www.w3.org/2000/svg" xmlns:xlink="http://www.w3.org/1999/xlink" width="135.211" height="124.37" viewBox="0 0 135.211 124.37">
  <defs>
    <clipPath id="clip-path">
      <rect id="Rectangle_218" data-name="Rectangle 218" width="135.211" height="124.37" fill="#333"/>
    </clipPath>
  </defs>
  <g id="Group_1122" data-name="Group 1122" clip-path="url(#clip-path)">
    <path id="Path_151" data-name="Path 151" d="M252.234,132.185a9.642,9.642,0,1,1,2.96-.469,9.657,9.657,0,0,1-2.96.469m0-15.1a5.469,5.469,0,1,0,2.48.6,5.473,5.473,0,0,0-2.48-.6" transform="translate(-174.977 -81.438)" fill="#333"/>
    <path id="Path_152" data-name="Path 152" d="M178.542,236.168a6.722,6.722,0,0,1-5.412-2.748l-13.378-18.412-16.53-13.021a2.114,2.114,0,0,1-.21-.19,10.76,10.76,0,0,1-1.737-12.623l7.434-14.506-3.851-1.718L136.9,183.167a6.491,6.491,0,0,1-10.493-7.644c.02-.028.042-.056.063-.083L137.7,161.451a7.054,7.054,0,0,1,8.506-2.316l27.732,12.185,5.895-10.027a6.518,6.518,0,0,1,11.468,6.2l-.02.037-8.841,15.719a7.09,7.09,0,0,1-9.331,3.014l-5.678-2.512-7.818,12.2,9.955,9.521a7.1,7.1,0,0,1,1.156,1.24l.022.031,13.21,18.795a6.7,6.7,0,0,1-5.417,10.629M145.928,198.8,162.566,211.9a2.092,2.092,0,0,1,.4.413l13.546,18.642a2.516,2.516,0,0,0,4.061-2.971l-.022-.031-13.207-18.791a2.925,2.925,0,0,0-.492-.518c-.04-.033-.079-.068-.116-.1l-11.25-10.759a2.09,2.09,0,0,1-.315-2.638l9.713-15.162a2.09,2.09,0,0,1,2.606-.784l7.352,3.253.077.036a2.881,2.881,0,0,0,1.282.3,2.912,2.912,0,0,0,2.571-1.538l.02-.037,8.838-15.715a2.337,2.337,0,0,0-4.129-2.192q-.019.036-.04.072L176.6,175.041a2.09,2.09,0,0,1-2.643.854L144.546,162.97a2.893,2.893,0,0,0-3.489.978c-.02.028-.042.056-.063.083l-11.22,13.979a2.311,2.311,0,0,0,3.769,2.674c.014-.02.029-.039.044-.059l8.979-11.535a2.09,2.09,0,0,1,2.5-.625l7.362,3.283a2.09,2.09,0,0,1,1.009,2.862L144.985,191.1l-.022.042a6.594,6.594,0,0,0,.965,7.655" transform="translate(-90.295 -113.888)" fill="#333"/>
    <path id="Path_153" data-name="Path 153" d="M113.431,324.831a7.132,7.132,0,0,1-4.317-1.465L91.945,310.2a7.094,7.094,0,0,1,8.635-11.257l10.86,8.331,1.272-1.927a2.09,2.09,0,1,1,3.489,2.3l-2.508,3.8a2.09,2.09,0,0,1-3.017.507l-12.641-9.7a2.913,2.913,0,1,0-3.546,4.623l17.168,13.169a2.913,2.913,0,0,0,4.3-.856c.014-.024.028-.048.043-.072l4.606-7.289a2.09,2.09,0,0,1,3.534,2.233l-4.586,7.257a7.092,7.092,0,0,1-6.121,3.509" transform="translate(-64.32 -214.573)" fill="#333"/>
    <path id="Path_154" data-name="Path 154" d="M264.226,435.447H211.151a2.09,2.09,0,1,1,0-4.18h53.075a2.09,2.09,0,1,1,0,4.18" transform="translate(-150.798 -311.077)" fill="#333"/>
    <path id="Path_155" data-name="Path 155" d="M78.425,435.447H59.554a2.09,2.09,0,0,1,0-4.18H78.425a2.09,2.09,0,0,1,0,4.18" transform="translate(-41.449 -311.077)" fill="#333"/>
    <path id="Path_156" data-name="Path 156" d="M2.091,37.264A2.09,2.09,0,0,1,.776,33.549L18.668,19.075a2.091,2.091,0,0,1,2.456-.126L26.5,22.455,47.183.652A2.059,2.059,0,0,1,48.711,0a2.091,2.091,0,0,1,1.521.669L68.586,20.457,81.2,12.3a2.09,2.09,0,0,1,2.524.194l8.4,7.479A2.09,2.09,0,1,1,89.346,23.1l-7.214-6.422L69.381,24.92a2.09,2.09,0,0,1-2.667-.334L48.683,5.146,28.334,26.6a2.09,2.09,0,0,1-2.658.312l-5.561-3.626L3.4,36.8a2.081,2.081,0,0,1-1.313.465" transform="translate(0 0)" fill="#333"/>
    <path id="Path_157" data-name="Path 157" d="M56.152,57.829A2.09,2.09,0,0,1,54.8,54.145L79.732,33l-2.214-6.431a2.09,2.09,0,0,1,1.593-2.735l9.611-1.8L85.63,2.416a2.09,2.09,0,1,1,4.129-.65L93.167,23.4a2.09,2.09,0,0,1-1.681,2.38L82.259,27.5l1.89,5.491a2.091,2.091,0,0,1-.625,2.275L57.5,57.333a2.081,2.081,0,0,1-1.351.5" transform="translate(-38.995 0)" fill="#333"/>
    <path id="Path_158" data-name="Path 158" d="M350.689,47.911a2.083,2.083,0,0,1-1.1-.315l-22.9-14.219-21.829,14.2a2.09,2.09,0,0,1-2.279-3.5l22.942-14.919a2.091,2.091,0,0,1,2.242-.023l24.025,14.919a2.091,2.091,0,0,1-1.1,3.866" transform="translate(-217.57 -20.781)" fill="#333"/>
  </g>
</svg>
