<svg xmlns="http://www.w3.org/2000/svg" width="50.925" height="50.925" viewBox="0 0 50.925 50.925">
  <path id="Exclusion_2" data-name="Exclusion 2" d="M25.463,50.925a25.651,25.651,0,0,1-5.132-.517,25.323,25.323,0,0,1-9.1-3.831A25.537,25.537,0,0,1,2,35.374a25.334,25.334,0,0,1-1.484-4.78,25.711,25.711,0,0,1,0-10.263,25.323,25.323,0,0,1,3.831-9.1A25.537,25.537,0,0,1,15.551,2,25.335,25.335,0,0,1,20.331.517a25.711,25.711,0,0,1,10.263,0,25.323,25.323,0,0,1,9.1,3.831,25.537,25.537,0,0,1,9.225,11.2,25.334,25.334,0,0,1,1.484,4.78,25.71,25.71,0,0,1,0,10.263,25.323,25.323,0,0,1-3.831,9.1,25.537,25.537,0,0,1-11.2,9.225,25.333,25.333,0,0,1-4.78,1.484A25.65,25.65,0,0,1,25.463,50.925Zm-2.8-22.571L30.822,44.45l8.149-16.095H34.119l-3.3,6.513-3.305-6.513Zm.364-21.879L11.955,28.355h6.6L23.031,19.5l4.487,8.858h6.6L23.031,6.475Z" fill="#fff"/>
</svg>
