<svg xmlns="http://www.w3.org/2000/svg" xmlns:xlink="http://www.w3.org/1999/xlink" width="150.43" height="248" viewBox="0 0 150.43 248">
  <defs>
    <clipPath id="clip-path">
      <rect id="Rectangle_5" data-name="Rectangle 5" width="150.43" height="248" fill="none"/>
    </clipPath>
  </defs>
  <g id="Group_2" data-name="Group 2" clip-path="url(#clip-path)">
    <path id="Path_1" data-name="Path 1" d="M91.239,31.914a18.721,18.721,0,0,0-2.461.181C84.83,25.116,76.542,20.309,66.952,20.309c-13.413,0-24.285,9.4-24.285,21.006,0,.035,0,.071,0,.108a18.069,18.069,0,0,0-1.894-.108c-8.747,0-15.836,6.18-15.836,13.8s7.089,13.8,15.836,13.8H91.239a18.5,18.5,0,1,0,0-37.009" transform="translate(-8.309 -6.766)" fill="#fff"/>
    <path id="Path_2" data-name="Path 2" d="M13.735,42.763a17.019,17.019,0,0,1,2.08-3.96A16,16,0,0,1,38.907,16.738a28.506,28.506,0,0,1,6.461-4.213L46.4,6.67l-11.96,4.352L28.076,0,21.711,11.023,9.75,6.67l2.21,12.536L0,23.557,9.75,31.74,3.386,42.763Z" fill="#fff"/>
    <path id="Path_3" data-name="Path 3" d="M38.19,38.2a23.7,23.7,0,0,1,6.13-11.963A13.262,13.262,0,0,0,25.008,44.274,20.642,20.642,0,0,1,38.19,38.2" transform="translate(-7.394 -7.61)" fill="#fff"/>
    <path id="Path_4" data-name="Path 4" d="M2.552,158.374l3.291-22.99h.373l9.346,18.865,9.256-18.865h.368l3.308,22.99H26.243l-2.271-16.441-8.129,16.441h-.587L7.03,141.807,4.771,158.374Z" transform="translate(-0.85 -45.106)" fill="#fff"/>
    <path id="Path_5" data-name="Path 5" d="M55.328,143.7a8.422,8.422,0,0,1,6.513,2.845,9.128,9.128,0,0,1-.133,12.37,8.987,8.987,0,0,1-12.775,0,9.109,9.109,0,0,1-.133-12.354,8.419,8.419,0,0,1,6.529-2.86m-.008,2.141a6.312,6.312,0,0,0-4.69,2.017,6.738,6.738,0,0,0-1.96,4.876,6.911,6.911,0,0,0,.894,3.438,6.338,6.338,0,0,0,2.415,2.462,6.871,6.871,0,0,0,6.682,0,6.338,6.338,0,0,0,2.415-2.462,6.918,6.918,0,0,0,.894-3.438A6.723,6.723,0,0,0,60,147.862a6.321,6.321,0,0,0-4.682-2.017" transform="translate(-15.476 -47.878)" fill="#fff"/>
    <path id="Path_6" data-name="Path 6" d="M79.122,144.142H81.31v3.047a9.145,9.145,0,0,1,2.907-2.617,7.136,7.136,0,0,1,3.47-.868,6.028,6.028,0,0,1,3.384.969,5.769,5.769,0,0,1,2.18,2.61,13.789,13.789,0,0,1,.7,5.111v8.752H91.766v-8.111a20.01,20.01,0,0,0-.243-3.923,4.308,4.308,0,0,0-1.459-2.539,4.4,4.4,0,0,0-2.813-.852,5.394,5.394,0,0,0-3.556,1.313,6.146,6.146,0,0,0-2.071,3.251,22.629,22.629,0,0,0-.313,4.626v6.236H79.122Z" transform="translate(-26.361 -47.878)" fill="#fff"/>
    <path id="Path_7" data-name="Path 7" d="M125,134.516v23.568h-2.157v-2.923a9.381,9.381,0,0,1-3.087,2.517,8.624,8.624,0,0,1-9.908-1.774,8.778,8.778,0,0,1-2.555-6.369,8.617,8.617,0,0,1,2.579-6.283,8.408,8.408,0,0,1,6.2-2.61,8.02,8.02,0,0,1,3.79.891,8.623,8.623,0,0,1,2.977,2.673v-9.69Zm-8.744,8.237a6.6,6.6,0,0,0-5.831,3.419,6.891,6.891,0,0,0,.008,6.869,6.708,6.708,0,0,0,2.474,2.552,6.461,6.461,0,0,0,3.333.914,6.833,6.833,0,0,0,3.4-.906,6.331,6.331,0,0,0,2.474-2.451,6.99,6.99,0,0,0,.867-3.482,6.769,6.769,0,0,0-1.944-4.933,6.438,6.438,0,0,0-4.785-1.982" transform="translate(-35.747 -44.816)" fill="#fff"/>
    <path id="Path_8" data-name="Path 8" d="M157.838,144.141v17h-2.157v-2.923a9.381,9.381,0,0,1-3.087,2.517,8.624,8.624,0,0,1-9.908-1.774,8.778,8.778,0,0,1-2.555-6.369,8.617,8.617,0,0,1,2.579-6.283,8.408,8.408,0,0,1,6.2-2.61,8.02,8.02,0,0,1,3.79.891,8.623,8.623,0,0,1,2.977,2.673v-3.126Zm-8.744,1.672a6.6,6.6,0,0,0-5.831,3.419,6.891,6.891,0,0,0,.008,6.869,6.7,6.7,0,0,0,2.474,2.552,6.461,6.461,0,0,0,3.333.914,6.833,6.833,0,0,0,3.4-.906,6.331,6.331,0,0,0,2.474-2.451,6.99,6.99,0,0,0,.867-3.482,6.769,6.769,0,0,0-1.944-4.933,6.438,6.438,0,0,0-4.785-1.982" transform="translate(-46.687 -47.878)" fill="#fff"/>
    <path id="Path_9" data-name="Path 9" d="M171.326,144.361h2.313l5.843,13.094,5.675-13.094h2.329l-10.143,23.224h-2.311l3.273-7.509Z" transform="translate(-57.08 -48.096)" fill="#fff"/>
    <path id="Path_10" data-name="Path 10" d="M6.937,256.358H1.38a19.908,19.908,0,0,1,5.735-14.082,18.43,18.43,0,0,1,13.578-5.507q8,0,12.948,5.165a17.035,17.035,0,0,1,4.947,12.184,18.993,18.993,0,0,1-2.359,9.247q-2.359,4.318-9.158,11.691L12.627,290.609H39.375v5.6H0l22.151-23.939q6.741-7.219,8.77-10.71a14.417,14.417,0,0,0,2.03-7.357,11.323,11.323,0,0,0-3.646-8.422,12.348,12.348,0,0,0-8.928-3.531,12.5,12.5,0,0,0-9.243,3.7q-3.686,3.706-4.2,10.406" transform="translate(0 -78.884)" fill="#fff"/>
    <path id="Path_11" data-name="Path 11" d="M75.58,251.667H69.668q1.615-7.173,6.188-11.036a16.2,16.2,0,0,1,10.8-3.862,17.848,17.848,0,0,1,8.455,2.069,15.32,15.32,0,0,1,6.07,5.577,13.834,13.834,0,0,1,2.149,7.331q0,7.488-7.45,11.864a16.906,16.906,0,0,1,6.858,4.966,15.869,15.869,0,0,1,3.784,10.327,18.422,18.422,0,0,1-2.6,9.4,18.041,18.041,0,0,1-7.094,6.917,20.69,20.69,0,0,1-10.05,2.444,18.456,18.456,0,0,1-12.5-4.316q-5.005-4.316-6.542-12.671h5.675q1.5,5.636,4.3,8.158a13.238,13.238,0,0,0,9.144,3.193,13.771,13.771,0,0,0,10.129-3.784,12.085,12.085,0,0,0,3.824-8.868,11.474,11.474,0,0,0-1.912-6.346,12.045,12.045,0,0,0-5.124-4.454q-3.213-1.5-9.952-1.852V261.4A18.269,18.269,0,0,0,91.07,260a10.576,10.576,0,0,0,4.75-3.568,8.226,8.226,0,0,0,1.478-4.73,8.583,8.583,0,0,0-3.015-6.542,10.863,10.863,0,0,0-7.627-2.759,10.239,10.239,0,0,0-6.464,2.109q-2.719,2.109-4.611,7.153" transform="translate(-22.568 -78.884)" fill="#fff"/>
    <path id="Path_12" data-name="Path 12" d="M207.154,244.723l-2.977,2.284a16.27,16.27,0,0,0-5.914-4.863,17.3,17.3,0,0,0-7.583-1.655,16.761,16.761,0,0,0-8.365,2.168,15.559,15.559,0,0,0-5.965,5.825,16.108,16.108,0,0,0-2.117,8.224,15.44,15.44,0,0,0,4.734,11.521,16.41,16.41,0,0,0,11.945,4.618,16.793,16.793,0,0,0,13.265-6.21l2.977,2.258a19.017,19.017,0,0,1-7.044,5.555,22.1,22.1,0,0,1-9.43,1.963q-9.9,0-15.627-6.594a19.9,19.9,0,0,1-4.8-13.445,18.7,18.7,0,0,1,5.811-13.946,20.036,20.036,0,0,1,14.562-5.658,21.37,21.37,0,0,1,9.546,2.092,18.523,18.523,0,0,1,6.979,5.863" transform="translate(-56.724 -78.884)" fill="#fff"/>
    <path id="Path_13" data-name="Path 13" d="M141.62,236.768a8.421,8.421,0,0,1,6.513,2.845,9.128,9.128,0,0,1-.133,12.37,8.987,8.987,0,0,1-12.775,0,9.109,9.109,0,0,1-.133-12.354,8.419,8.419,0,0,1,6.529-2.86m-.008,2.141a6.314,6.314,0,0,0-4.69,2.016,6.74,6.74,0,0,0-1.96,4.877,6.913,6.913,0,0,0,.894,3.438,6.338,6.338,0,0,0,2.415,2.462,6.871,6.871,0,0,0,6.682,0,6.338,6.338,0,0,0,2.415-2.462,6.92,6.92,0,0,0,.894-3.438,6.726,6.726,0,0,0-1.968-4.877,6.323,6.323,0,0,0-4.682-2.016" transform="translate(-44.225 -78.884)" fill="#fff"/>
    <path id="Path_14" data-name="Path 14" d="M5.3,181.15h1.1v7.407a7.261,7.261,0,0,1-.265,2.375A2.216,2.216,0,0,1,5.244,192a2.713,2.713,0,0,1-1.5.4,3.49,3.49,0,0,1-1.308-.257,5.558,5.558,0,0,1-1.429-.906l.582-.872a8.617,8.617,0,0,0,1.428.85,1.811,1.811,0,0,0,.732.164,1.412,1.412,0,0,0,.856-.283,1.481,1.481,0,0,0,.538-.754,6.984,6.984,0,0,0,.153-1.82Z" transform="translate(-0.336 -60.353)" fill="#fff"/>
    <path id="Path_15" data-name="Path 15" d="M13.144,181.15h1.1v6.623a13.856,13.856,0,0,0,.045,1.47,2.428,2.428,0,0,0,.381,1.085,2.232,2.232,0,0,0,.917.731,2.872,2.872,0,0,0,1.246.295,2.462,2.462,0,0,0,1.044-.231,2.318,2.318,0,0,0,.836-.641,2.612,2.612,0,0,0,.492-.992,8.2,8.2,0,0,0,.112-1.716V181.15h1.1v6.623a8.049,8.049,0,0,1-.287,2.376,3.231,3.231,0,0,1-1.149,1.577,3.286,3.286,0,0,1-2.085.671,4,4,0,0,1-2.275-.633,3.052,3.052,0,0,1-1.268-1.678,8.9,8.9,0,0,1-.2-2.313Z" transform="translate(-4.379 -60.353)" fill="#fff"/>
    <path id="Path_16" data-name="Path 16" d="M28.088,181.15h1.1v9.912h4.222v1.059H28.088Z" transform="translate(-9.358 -60.353)" fill="#fff"/>
    <path id="Path_17" data-name="Path 17" d="M45,184.443H43.953a3.768,3.768,0,0,1,1.086-2.665,3.489,3.489,0,0,1,2.569-1.042,3.27,3.27,0,0,1,3.386,3.283,3.6,3.6,0,0,1-.446,1.75,12.614,12.614,0,0,1-1.734,2.213l-2.733,2.943h5.062v1.059H43.692l4.192-4.53a13.575,13.575,0,0,0,1.66-2.027,2.726,2.726,0,0,0,.383-1.392,2.139,2.139,0,0,0-.69-1.594,2.336,2.336,0,0,0-1.689-.668,2.365,2.365,0,0,0-1.749.7A3.012,3.012,0,0,0,45,184.443" transform="translate(-14.557 -60.216)" fill="#fff"/>
    <path id="Path_18" data-name="Path 18" d="M59.008,192.26l-.9-.581,2.969-4.493a3.583,3.583,0,0,1-1.12.2,2.968,2.968,0,0,1-2.219-.944,3.213,3.213,0,0,1-.912-2.323,3.351,3.351,0,0,1,.44-1.708,3.251,3.251,0,0,1,1.25-1.216,3.488,3.488,0,0,1,1.734-.455,3.339,3.339,0,0,1,1.682.44,3.158,3.158,0,0,1,1.212,1.23,3.422,3.422,0,0,1,.439,1.686,4.124,4.124,0,0,1-.272,1.421,8.856,8.856,0,0,1-.974,1.786Zm1.2-5.84a2.307,2.307,0,1,0-1.633-.675,2.219,2.219,0,0,0,1.633.675" transform="translate(-18.931 -60.216)" fill="#fff"/>
    <path id="Path_19" data-name="Path 19" d="M.311,361.5l1.646-11.495h.187l4.673,9.432,4.628-9.432h.185L13.283,361.5H12.157l-1.136-8.221L6.956,361.5H6.663L2.55,353.217,1.421,361.5Z" transform="translate(-0.104 -116.611)" fill="#fff"/>
    <path id="Path_20" data-name="Path 20" d="M26.7,354.166a4.212,4.212,0,0,1,3.257,1.422,4.567,4.567,0,0,1-.067,6.186,4.164,4.164,0,0,1-3.19,1.332,4.173,4.173,0,0,1-3.2-1.332,4.557,4.557,0,0,1-.067-6.178,4.21,4.21,0,0,1,3.265-1.43m0,1.07a3.158,3.158,0,0,0-2.345,1.008,3.371,3.371,0,0,0-.98,2.438,3.456,3.456,0,0,0,.447,1.719,3.167,3.167,0,0,0,1.208,1.231,3.435,3.435,0,0,0,3.341,0,3.171,3.171,0,0,0,1.208-1.231,3.456,3.456,0,0,0,.447-1.719,3.362,3.362,0,0,0-.984-2.438,3.159,3.159,0,0,0-2.341-1.008" transform="translate(-7.417 -117.997)" fill="#fff"/>
    <path id="Path_21" data-name="Path 21" d="M42.468,355.314l-.7.727a2.526,2.526,0,0,0-1.716-.852,1.3,1.3,0,0,0-.913.351,1.087,1.087,0,0,0-.379.82,1.216,1.216,0,0,0,.313.79,4.4,4.4,0,0,0,1.316.9,4.9,4.9,0,0,1,1.66,1.219,2.221,2.221,0,0,1,.431,1.336,2.4,2.4,0,0,1-.736,1.774,2.513,2.513,0,0,1-1.839.727,3.214,3.214,0,0,1-1.4-.321,3.045,3.045,0,0,1-1.108-.883l.688-.782a2.393,2.393,0,0,0,1.778.946,1.6,1.6,0,0,0,1.12-.422,1.3,1.3,0,0,0,.462-.992,1.273,1.273,0,0,0-.305-.836,4.9,4.9,0,0,0-1.378-.906,4.41,4.41,0,0,1-1.566-1.172,2.208,2.208,0,0,1-.415-1.321,2.15,2.15,0,0,1,.661-1.61,2.3,2.3,0,0,1,1.671-.641,3.464,3.464,0,0,1,2.364,1.149" transform="translate(-12.457 -117.997)" fill="#fff"/>
    <path id="Path_22" data-name="Path 22" d="M48.6,349.76h1.094v3.157h1.734v.946H49.691v7.557H48.6v-7.557H47.1v-.946H48.6Z" transform="translate(-15.694 -116.529)" fill="#fff"/>
    <rect id="Rectangle_4" data-name="Rectangle 4" width="1.094" height="11.784" transform="translate(37.209 233.106)" fill="#fff"/>
    <path id="Path_23" data-name="Path 23" d="M59.479,354.494h1.156l2.922,6.547,2.837-6.547h1.164l-5.071,11.612H61.332l1.636-3.754Z" transform="translate(-19.817 -118.106)" fill="#fff"/>
    <path id="Path_24" data-name="Path 24" d="M84.234,355.314l-.7.727a2.526,2.526,0,0,0-1.716-.852,1.3,1.3,0,0,0-.913.351,1.087,1.087,0,0,0-.379.82,1.216,1.216,0,0,0,.313.79,4.4,4.4,0,0,0,1.316.9,4.9,4.9,0,0,1,1.66,1.219,2.221,2.221,0,0,1,.431,1.336,2.4,2.4,0,0,1-.736,1.774,2.513,2.513,0,0,1-1.839.727,3.219,3.219,0,0,1-1.405-.321,3.049,3.049,0,0,1-1.107-.883l.688-.782a2.393,2.393,0,0,0,1.778.946,1.6,1.6,0,0,0,1.12-.422,1.3,1.3,0,0,0,.462-.992,1.273,1.273,0,0,0-.305-.836,4.9,4.9,0,0,0-1.378-.906,4.42,4.42,0,0,1-1.566-1.172,2.211,2.211,0,0,1-.415-1.321,2.15,2.15,0,0,1,.662-1.61,2.3,2.3,0,0,1,1.671-.641,3.464,3.464,0,0,1,2.364,1.149" transform="translate(-26.372 -117.997)" fill="#fff"/>
    <path id="Path_25" data-name="Path 25" d="M89.467,354.494h1.094v3.97a8.45,8.45,0,0,0,.157,2,2.229,2.229,0,0,0,.9,1.235,2.721,2.721,0,0,0,1.577.453,2.658,2.658,0,0,0,1.553-.441,2.258,2.258,0,0,0,.881-1.16,8.209,8.209,0,0,0,.164-2.087v-3.97h1.118v4.173a6.6,6.6,0,0,1-.41,2.649,3.132,3.132,0,0,1-1.235,1.394,3.9,3.9,0,0,1-2.067.5,3.941,3.941,0,0,1-2.075-.5,3.106,3.106,0,0,1-1.243-1.406,6.873,6.873,0,0,1-.41-2.715Z" transform="translate(-29.808 -118.106)" fill="#fff"/>
    <path id="Path_26" data-name="Path 26" d="M104.268,354.385h1.094v1.524a4.572,4.572,0,0,1,1.453-1.309,3.576,3.576,0,0,1,1.735-.433,3.011,3.011,0,0,1,1.692.485,2.886,2.886,0,0,1,1.09,1.3,6.908,6.908,0,0,1,.351,2.555v4.376H110.59v-4.056a10.036,10.036,0,0,0-.121-1.961,2.156,2.156,0,0,0-.73-1.27,2.2,2.2,0,0,0-1.406-.425,2.7,2.7,0,0,0-1.778.656,3.076,3.076,0,0,0-1.036,1.626,11.316,11.316,0,0,0-.156,2.313v3.118h-1.094Z" transform="translate(-34.739 -117.997)" fill="#fff"/>
    <path id="Path_27" data-name="Path 27" d="M118.9,354.385H120v1.524a4.572,4.572,0,0,1,1.453-1.309,3.576,3.576,0,0,1,1.735-.433,3.011,3.011,0,0,1,1.692.485,2.886,2.886,0,0,1,1.09,1.3,6.907,6.907,0,0,1,.351,2.555v4.376h-1.094v-4.056a10.035,10.035,0,0,0-.121-1.961,2.156,2.156,0,0,0-.73-1.27,2.2,2.2,0,0,0-1.406-.425,2.7,2.7,0,0,0-1.778.656,3.076,3.076,0,0,0-1.036,1.626,11.315,11.315,0,0,0-.156,2.313v3.118H118.9Z" transform="translate(-39.615 -117.997)" fill="#fff"/>
    <path id="Path_28" data-name="Path 28" d="M132.17,354.494h1.156l2.922,6.547,2.837-6.547h1.164l-5.071,11.612h-1.156l1.636-3.754Z" transform="translate(-44.035 -118.106)" fill="#fff"/>
  </g>
</svg>
