<svg id="Group_1149" data-name="Group 1149" xmlns="http://www.w3.org/2000/svg" xmlns:xlink="http://www.w3.org/1999/xlink" width="225.578" height="207.435" viewBox="0 0 225.578 207.435">
  <defs>
    <clipPath id="clip-path">
      <rect id="Rectangle_220" data-name="Rectangle 220" width="225.578" height="207.435" fill="none"/>
    </clipPath>
    <clipPath id="clip-path-2">
      <rect id="Rectangle_9" data-name="Rectangle 9" width="135.137" height="84.356" transform="translate(0 0)" fill="none"/>
    </clipPath>
  </defs>
  <g id="Group_1143" data-name="Group 1143" transform="translate(0 0)">
    <g id="Group_1140" data-name="Group 1140" transform="translate(0 0)" clip-path="url(#clip-path)">
      <path id="Path_161" data-name="Path 161" d="M17.68,207.431H207.9c9.749,0,17.681-9.367,17.681-20.881V81.874c0-11.512-7.932-20.879-17.681-20.879H167.8V46.749a17.7,17.7,0,0,0-17.681-17.679H131.673V19.314a19.318,19.318,0,0,0-38.636,0v9.755H75.461A17.7,17.7,0,0,0,57.78,46.749V60.995H17.68C7.931,60.995,0,70.362,0,81.874V186.551c0,11.514,7.931,20.881,17.68,20.881M112.355,3.908a15.424,15.424,0,0,1,15.406,15.406V57.081H96.948V19.314A15.424,15.424,0,0,1,112.355,3.908M94.993,60.992h34.725a1.956,1.956,0,0,0,1.956-1.956V48.994a8.937,8.937,0,0,1,7.988,8.875V60.2a8.937,8.937,0,0,1-8.926,8.926H94.842A8.936,8.936,0,0,1,85.917,60.2V57.869a8.94,8.94,0,0,1,7.12-8.741v9.909a1.956,1.956,0,0,0,1.956,1.956M3.912,81.874c0-9.355,6.176-16.968,13.768-16.968H59.736a1.956,1.956,0,0,0,1.956-1.956v-16.2A13.783,13.783,0,0,1,75.461,32.981H93.037V45.174A12.846,12.846,0,0,0,82,57.869V60.2A12.852,12.852,0,0,0,94.842,73.042h35.893A12.853,12.853,0,0,0,143.573,60.2V57.869a12.845,12.845,0,0,0-11.9-12.789v-12.1h18.444a13.783,13.783,0,0,1,13.769,13.768v16.2a1.956,1.956,0,0,0,1.956,1.956H207.9c7.592,0,13.769,7.612,13.769,16.968V186.551c0,9.357-6.176,16.969-13.769,16.969H17.68c-7.592,0-13.768-7.612-13.768-16.969Z" transform="translate(0 0.004)" fill="#333"/>
      <path id="Path_162" data-name="Path 162" d="M1714.382,194.1a9.818,9.818,0,1,0-9.818-9.818,9.829,9.829,0,0,0,9.818,9.818m0-15.725a5.906,5.906,0,1,1-5.906,5.907,5.914,5.914,0,0,1,5.906-5.907" transform="translate(-1602.027 -163.969)" fill="#333"/>
    </g>
  </g>
  <g id="Group_1146" data-name="Group 1146" transform="translate(39.006 101.935)">
    <g id="Group_9" data-name="Group 9" clip-path="url(#clip-path-2)">
      <path id="Path_35" data-name="Path 35" d="M122.518,81.325H110.73V60.587l12.34-12.34a1.518,1.518,0,0,0-2.147-2.147L110.73,56.294V32.477l5.146-5.146a1.518,1.518,0,0,0-2.147-2.147l-3,3V15.309a1.518,1.518,0,0,0-3.036,0V31.847h0V41.887l-8.03-8.03A1.518,1.518,0,1,0,97.518,36L107.695,46.18V81.325H83.63a3.443,3.443,0,0,0,.233-1.674,12.566,12.566,0,0,0,2.245-2.169,10.068,10.068,0,0,0,3.492.809q.123,0,.242,0a5.4,5.4,0,0,0,3.108-.863,2.921,2.921,0,0,0,1.367-2.154c2.315-1.424,3.523-4.086,3.072-6.026A2.661,2.661,0,0,0,96.2,67.539a7.637,7.637,0,0,0-7.268-8.914,1.518,1.518,0,0,0-1.293,2.4c1.619,2.249,2.223,4.376,1.747,6.15a4.947,4.947,0,0,1-1.4,2.286A13.912,13.912,0,0,0,86.2,64.8a18.264,18.264,0,0,0-4.27-4.805l-.041-.032c-1.472-1.092-1.817-3.68-1.848-5.658a24.074,24.074,0,0,1,.432-4.781,26.9,26.9,0,0,0,.671-3.851,7.268,7.268,0,0,0,2.45-1.925,4.835,4.835,0,0,0,1.278-3.511,2.381,2.381,0,0,0-2.781-1.923,1.519,1.519,0,0,0-.65.215,4.749,4.749,0,0,1-2.586.541c-.407-.272-1.135-.746-1.957-1.215-2.473-1.412-3.559-1.52-4.229-1.455a1.524,1.524,0,0,0-.313.064c-.3.094-.627.238-.977.389a7.523,7.523,0,0,1-1.437.519c-.6-.148-2.289-.719-3.281-1.068a2.153,2.153,0,0,0-1.875.134,3.455,3.455,0,0,0-1.493,2.69,5.493,5.493,0,0,0,2.143,4.983l1.445,1.118.024.047q.026.051.056.1a6.371,6.371,0,0,0,1.53,1.708,4.257,4.257,0,0,1-.524,1.5,6.671,6.671,0,0,0-.86,3.648,1.518,1.518,0,0,0,1.513,1.412c.035,0,.071,0,.107,0a1.518,1.518,0,0,0,1.409-1.62,3.792,3.792,0,0,1,.562-2.11,9.676,9.676,0,0,0,.6-1.443,8.106,8.106,0,0,0,1.628.292l.163-3.031H73.1a5.855,5.855,0,0,1-2.028-.589,3.712,3.712,0,0,1-1.49-1.3l-.15-.293a1.519,1.519,0,0,0-.423-.51L67.288,41.7a2.448,2.448,0,0,1-.985-2.2q.007-.055.015-.1c.921.317,2.407.815,3.045.955l.032.007a5.723,5.723,0,0,0,3.191-.724c.165-.072.334-.145.473-.2a16.99,16.99,0,0,1,4.392,2.354,1.518,1.518,0,0,0,.641.257,8.449,8.449,0,0,0,3.11-.175l-.054.062a3.75,3.75,0,0,1-1.8,1.169,1.519,1.519,0,0,0-1.155,1.392,25.008,25.008,0,0,1-.666,4.28h0A26.779,26.779,0,0,0,77,54.189c.032,3.941,1.06,6.7,3.053,8.191,1.917,1.531,5.11,4.777,5.11,9.4,0,3.705-3.791,5.9-3.824,5.915a1.518,1.518,0,0,0-.529,2.163.434.434,0,0,1-.029.4.469.469,0,0,1-.42.243H70.826a.908.908,0,0,1,.3-.47c.483-.338,2.6-.459,4.433-.254a1.518,1.518,0,0,0,1.2-2.625c-1.019-.938-3-3.3-3.028-4.958a1.482,1.482,0,0,0,0-.16c0-.041.005-.081.01-.121V71.9a3.891,3.891,0,0,1,2.885-3.188,1.518,1.518,0,0,0-.611-2.974,6.7,6.7,0,0,0-3.809,2.38c-.373-.634-.765-1.212-1.139-1.761a10.332,10.332,0,0,1-1.905-3.816l.189-.013a4.041,4.041,0,0,1,1.515.535,1.518,1.518,0,0,0,1.508-2.635,6.707,6.707,0,0,0-3.188-.932c-.5.027-1,.08-1.491.131a17.01,17.01,0,0,1-1.855.131,2.129,2.129,0,0,1-.736-.1,21.435,21.435,0,0,1-1.253-3.739c-.145-.566-.283-1.1-.467-1.6-.669-1.831-1.98-1.791-2.365-1.736A2.28,2.28,0,0,0,59.2,54.8a4.9,4.9,0,0,1-.694,2.032,3.738,3.738,0,0,1-.317-.543A8.131,8.131,0,0,1,59.251,53.2a4.471,4.471,0,0,1,1.619-1.889c1.815,0,2.073.389,2.346.8a17.282,17.282,0,0,1,1.418,2.7,11.41,11.41,0,0,0,.805,1.6C66.487,58,68.9,57.59,69.61,57.426a1.518,1.518,0,0,0-.674-2.96,3.849,3.849,0,0,1-1.076.079c-.133-.248-.289-.6-.453-.966a20.066,20.066,0,0,0-1.67-3.159c-1.02-1.52-2.439-2.14-4.9-2.14a3.819,3.819,0,0,0-2.669,1.309,11.355,11.355,0,0,0-3.019,6.928,1.515,1.515,0,0,0,.042.35,7.454,7.454,0,0,0,1.8,2.89c.019.02.04.04.06.059a2.027,2.027,0,0,0,2.155.391,4.445,4.445,0,0,0,2.093-2.12A22.411,22.411,0,0,0,62.384,61l.02.042a3.212,3.212,0,0,0,2.8,1.72,7.816,7.816,0,0,0,.921.031,12.589,12.589,0,0,0,2.436,5.271,12.912,12.912,0,0,1,2.135,4.2,8.57,8.57,0,0,0,1.686,4.426,6.034,6.034,0,0,0-2.994.855,4.539,4.539,0,0,0-1.727,3.78H55.886a5.2,5.2,0,0,0,.757-3.092L55.41,60.949c0-.044,0-.087,0-.131,0-.16-.011-.3-.022-.415l0-.027c0-.031-.006-.062-.011-.093s0-.032-.006-.048,0-.029-.007-.043v-.009a5.242,5.242,0,0,0-1.328-2.764L45.594,47.247l-.421-4.27a4.529,4.529,0,0,0,1.413-.792l8.856-7.32a6.2,6.2,0,0,0,2.256-3.83,3.912,3.912,0,0,0-.96-2.909A43.329,43.329,0,0,0,50.6,23.7a54.568,54.568,0,0,0-6.358-3.683l-.01,0a7.709,7.709,0,0,0-5.156.18l-.051.024c-2.5,1.22-5.9.874-8.258.144q-.069-.021-.14-.036A21.834,21.834,0,0,0,26,19.871l-5.242.052L16.043,9.579l-.012-.026c-.074-.155-.156-.307-.245-.454a4.487,4.487,0,0,0-.919-1.131L20.153,4.8a1.518,1.518,0,1,0-1.561-2.6l-1.081.648V1.523a1.518,1.518,0,0,0-3.036,0v3.14L10.4,7.106a4.913,4.913,0,0,0-.473.183l-.007,0a4.619,4.619,0,0,0-1.284.871L3.742,11.1l-.013.008L.738,12.9A1.518,1.518,0,1,0,2.3,15.5l1.233-.739.088.36A1.518,1.518,0,1,0,6.57,14.4L6.258,13.13l1.074-.644a4.652,4.652,0,0,0,.309.922l5.791,12.719,0,.009.1.209q.015.032.031.063l.008.015c.048.093.1.2.178.321a4.591,4.591,0,0,0,3.429,2.174l.066.006,8.584.572L28.207,51.66,14.272,75.928a5.944,5.944,0,0,0-.281.551,5.232,5.232,0,0,0,.322,4.846H10.428a1.518,1.518,0,1,0,0,3.036h112.09a1.518,1.518,0,1,0,0-3.036M80.465,49.536l0-.007c0,.013-.006.022-.008.029l.006-.021m11.855,18.43a8.452,8.452,0,0,0-.156-4.706q.048.056.1.115c.907,1.146,1.165,2.846.767,5.053a1.518,1.518,0,0,0,1.412,1.785,2.766,2.766,0,0,1-.3.95,3.819,3.819,0,0,1-2.236,1.9,1.518,1.518,0,0,0-.959,2.009,4.768,4.768,0,0,1-3.3-.254A8.588,8.588,0,0,0,88.1,73.1a8.425,8.425,0,0,0,4.225-5.138M43.955,31.046l1.077.594-.936.79ZM16.765,77.713a2.9,2.9,0,0,1,.138-.271l14.182-24.7.011-.021c.015-.026.028-.053.041-.08s.018-.037.026-.056.021-.053.031-.08.015-.041.022-.061.014-.051.021-.076.012-.046.017-.069.008-.047.012-.071.009-.052.011-.078,0-.044,0-.066,0-.057,0-.085,0-.041,0-.062,0-.06-.005-.09c0-.008,0-.015,0-.023L28.711,27.9c0-.006,0-.012,0-.018,0-.032-.009-.063-.015-.094s-.006-.038-.011-.056-.015-.059-.023-.088-.011-.04-.017-.059-.019-.051-.029-.076-.016-.043-.026-.064-.021-.044-.032-.066-.022-.045-.035-.067-.025-.04-.037-.06-.027-.043-.041-.064-.03-.039-.045-.059-.028-.037-.044-.055-.038-.041-.057-.062-.027-.029-.041-.043-.047-.043-.071-.063l-.037-.031c-.027-.021-.055-.041-.083-.061l-.034-.024c-.029-.019-.059-.036-.09-.053L27.9,26.72c-.029-.015-.059-.028-.089-.042l-.047-.021c-.027-.011-.054-.02-.081-.029l-.062-.02c-.024-.007-.048-.012-.072-.018s-.051-.012-.078-.017l-.065-.009c-.029,0-.058-.008-.087-.01l-.02,0L17.485,25.9a1.574,1.574,0,0,1-1.148-.742c-.016-.027-.038-.067-.064-.118l-.08-.173L10.4,12.148a1.57,1.57,0,0,1-.044-1.21,1.587,1.587,0,0,1,.217-.4L11.6,9.925a1.42,1.42,0,0,1,1.553.693l.028.048c.037.06.071.123.1.186l5.1,11.2,0,0,.011.025c0,.011.011.021.016.032.015.031.03.062.048.092s.022.036.033.053.029.046.045.069.031.041.047.062.027.035.042.052.038.042.057.062l.043.043c.02.019.041.038.063.056l.049.041.062.046.06.041.058.035.072.04.053.025c.027.012.054.024.082.035l.052.019c.028.01.057.019.086.028l.059.015.081.018.073.011.07.008c.03,0,.061,0,.091,0l.041,0h.044l6.2-.061a18.731,18.731,0,0,1,3.916.375,18.416,18.416,0,0,0,5.156.775,11.993,11.993,0,0,0,5.231-1.1,4.646,4.646,0,0,1,3.018-.043A58.435,58.435,0,0,1,49,26.276a46.687,46.687,0,0,1,5.421,3.806.869.869,0,0,1,.257.686,3.217,3.217,0,0,1-1.17,1.76l-8.852,7.317a1.486,1.486,0,0,1-.971.338c-.04,0-.081-.006-.122-.007a1.49,1.49,0,0,1-.822-2.623l1.065-.9q.055-.042.105-.089l6.1-5.158a1.518,1.518,0,1,0-1.959-2.319l-.538.455-4.631-2.553-.007,0c-.036-.02-.073-.037-.11-.054l-.025-.012c-.043-.018-.087-.034-.131-.048l-.01,0c-.043-.014-.088-.025-.133-.034l-.013,0c-.028-.006-.056-.009-.084-.013s-.043-.008-.065-.01l-.049,0c-.034,0-.068,0-.1-.005l-.045,0c-.035,0-.071,0-.106.005H42l-.051.008c-.029,0-.059.008-.088.013s-.051.012-.077.018l-.065.017c-.028.008-.056.019-.084.029l-.055.02c-.027.011-.054.024-.08.036l-.054.026c-.024.013-.047.026-.07.04l-.059.036-.058.041c-.021.015-.042.031-.063.048l-.047.041c-.021.019-.043.038-.063.058l-.042.044c-.019.021-.039.042-.057.064s-.028.037-.043.055-.031.04-.045.062-.033.052-.049.078-.018.027-.026.041l0,.007c-.018.033-.034.068-.05.1,0,.011-.011.022-.016.033-.016.037-.029.075-.041.113,0,.01-.007.019-.01.029-.01.031-.017.062-.024.094s-.01.034-.013.052,0,.026-.006.04c-.006.036-.013.073-.016.109,0,.007,0,.015,0,.022,0,.043-.006.086-.006.129,0,.01,0,.021,0,.031,0,.04,0,.08.006.12,0,0,0,0,0,.007l.646,6.332-.508.43a4.529,4.529,0,0,0,1.341,7.7l.5,5.068a1.516,1.516,0,0,0,.044.24c0,.016.007.032.012.047s.013.037.019.055.018.056.029.083.014.03.021.046.026.059.041.087.016.028.024.042.033.057.051.085l.029.041c.019.027.038.053.059.079l.013.018L51.719,59.39q.031.037.064.072a2.22,2.22,0,0,1,.566,1.141c0,.015,0,.03.006.045.006.091.012.185.012.261,0,.012,0,.023,0,.035s0,.021,0,.032,0,.022,0,.033l1.244,17.439a2.191,2.191,0,0,1-4.336.578L49.273,79a1.9,1.9,0,0,1-.034-.246l0-.022L47.716,62.05c0-.015,0-.029-.006-.044,0-.033-.008-.067-.014-.1s-.009-.04-.014-.06-.013-.057-.021-.085-.015-.044-.022-.066-.017-.05-.027-.075-.02-.045-.03-.067-.02-.045-.032-.068-.026-.046-.039-.068-.023-.04-.036-.06-.034-.049-.052-.072-.023-.032-.035-.048-.047-.055-.072-.082l-.025-.028-.008-.008,0,0-8.1-8.323-.023-.022q-.031-.031-.064-.06l-.057-.047-.057-.043c-.025-.018-.05-.035-.075-.051l-.025-.017-.024-.013c-.028-.016-.056-.031-.084-.045l-.053-.025c-.027-.012-.054-.023-.081-.034l-.063-.023-.073-.022-.073-.019-.066-.013-.08-.013-.065-.006-.08,0h-.069l-.075,0-.076.007-.066.009-.083.016-.057.013c-.029.008-.057.016-.086.026l-.053.018c-.028.01-.055.021-.082.033l-.055.024-.073.038-.061.035-.06.039-.068.048-.048.039q-.036.03-.07.061l-.022.019-.022.023c-.021.021-.041.042-.06.065l-.047.056-.043.057q-.026.037-.05.074l-.018.026L20.641,79.729a2.188,2.188,0,0,1-3,.754,2.2,2.2,0,0,1-.875-2.769M23.241,81.3,38.373,56.319l6.368,6.542L46.213,79a4.907,4.907,0,0,0,.089.628,5.189,5.189,0,0,0,.665,1.7H23.223l.018-.029" transform="translate(-0.001 -0.005)" fill="#252525"/>
      <path id="Path_36" data-name="Path 36" d="M1190.115,90.146a10.684,10.684,0,0,0-8.773-16.785q-.381,0-.76.026a10.686,10.686,0,1,0-20.666-.014q-.259-.012-.52-.012a10.685,10.685,0,0,0-8.64,16.974,10.787,10.787,0,0,0-3.333,2.908,10.687,10.687,0,0,0,8.542,17.108q.374,0,.748-.026a10.69,10.69,0,0,0,10.195,7.479,1.518,1.518,0,1,0,0-3.036,7.62,7.62,0,0,1-7.545-6.382,1.518,1.518,0,0,0-1.81-1.236,7.656,7.656,0,0,1-9.238-7.485,7.607,7.607,0,0,1,5.422-7.321,1.518,1.518,0,0,0,.569-2.585,7.652,7.652,0,0,1,7.594-12.942,1.518,1.518,0,0,0,1.8-2.219,7.651,7.651,0,1,1,13.052.093,1.518,1.518,0,0,0,1.836,2.219,7.651,7.651,0,0,1,7.943,12.763,1.518,1.518,0,0,0,.648,2.585,7.652,7.652,0,0,1-1.928,15.056h-.161a1.518,1.518,0,0,0-1.491,1.236,7.651,7.651,0,0,1-7.516,6.219,1.518,1.518,0,1,0,0,3.036,10.694,10.694,0,0,0,10.2-7.5,10.69,10.69,0,0,0,3.833-20.154" transform="translate(-1060.796 -55.54)" fill="#252525"/>
      <path id="Path_37" data-name="Path 37" d="M383.545,82.622A7.369,7.369,0,1,0,380,78.237a7.329,7.329,0,0,0,3.547,4.385m-.287-8.544a4.3,4.3,0,0,1,2.578-2.086,4.306,4.306,0,0,1,3.3.348,4.3,4.3,0,0,1,2.086,2.578h0a4.333,4.333,0,1,1-7.962-.841" transform="translate(-351.683 -63.702)" fill="#252525"/>
    </g>
  </g>
</svg>
