<svg id="phone" xmlns="http://www.w3.org/2000/svg" width="21.194" height="21.186" viewBox="0 0 21.194 21.186">
  <path id="Path_145" data-name="Path 145" d="M36.692,39.186h-.139c-16.012-.921-18.285-14.431-18.6-18.554A2.445,2.445,0,0,1,20.2,18h4.49A1.63,1.63,0,0,1,26.2,19.027l1.239,3.048a1.63,1.63,0,0,1-.359,1.76l-1.736,1.752a7.635,7.635,0,0,0,6.177,6.193l1.768-1.752a1.63,1.63,0,0,1,1.768-.334l3.072,1.23a1.63,1.63,0,0,1,1,1.516v4.3A2.445,2.445,0,0,1,36.692,39.186ZM20.4,19.63a.815.815,0,0,0-.815.815v.065c.375,4.824,2.779,16.232,17.063,17.047a.815.815,0,0,0,.864-.766V32.439l-3.072-1.23L32.1,33.531l-.391-.049c-7.089-.888-8.051-7.977-8.051-8.051l-.049-.391L25.92,22.7,24.7,19.63Z" transform="translate(-17.943 -18)" fill="#93cc58"/>
</svg>
