<svg xmlns="http://www.w3.org/2000/svg" width="10.709" height="10.705" viewBox="0 0 10.709 10.705">
  <g id="phone" transform="translate(-17.943 -18)">
    <path id="Path_145" data-name="Path 145" d="M27.417,28.705h-.07c-8.091-.465-9.239-7.292-9.4-9.375A1.235,1.235,0,0,1,19.083,18h2.269a.823.823,0,0,1,.766.519l.626,1.54a.823.823,0,0,1-.181.889l-.877.885a3.858,3.858,0,0,0,3.121,3.129l.893-.885a.823.823,0,0,1,.893-.169l1.552.622a.823.823,0,0,1,.506.766V27.47A1.235,1.235,0,0,1,27.417,28.705Zm-8.235-9.882a.412.412,0,0,0-.412.412v.033c.189,2.437,1.4,8.2,8.622,8.613a.412.412,0,0,0,.436-.387V25.3l-1.552-.622-1.182,1.173-.2-.025a4.793,4.793,0,0,1-4.068-4.068l-.025-.2,1.169-1.182-.618-1.552Z" fill="#1d60a9"/>
  </g>
</svg>
