<svg id="phone" xmlns="http://www.w3.org/2000/svg" width="17.986" height="28.778" viewBox="0 0 17.986 28.778">
  <g id="Group_1113" data-name="Group 1113" transform="translate(0)">
    <path id="Path_146" data-name="Path 146" d="M50.389,1.8a1.8,1.8,0,0,1,1.8,1.8V25.181a1.8,1.8,0,0,1-1.8,1.8H39.6a1.8,1.8,0,0,1-1.8-1.8V3.6a1.8,1.8,0,0,1,1.8-1.8ZM39.6,0A3.6,3.6,0,0,0,36,3.6V25.181a3.6,3.6,0,0,0,3.6,3.6H50.389a3.6,3.6,0,0,0,3.6-3.6V3.6a3.6,3.6,0,0,0-3.6-3.6Z" transform="translate(-36)" fill="#93cc58"/>
    <path id="Path_147" data-name="Path 147" d="M85.8,147.6a1.8,1.8,0,1,0-1.8-1.8A1.8,1.8,0,0,0,85.8,147.6Z" transform="translate(-76.806 -122.417)" fill="#93cc58"/>
  </g>
</svg>
