<svg xmlns="http://www.w3.org/2000/svg" xmlns:xlink="http://www.w3.org/1999/xlink" width="173.403" height="84.356" viewBox="0 0 173.403 84.356">
  <defs>
    <clipPath id="clip-path">
      <rect id="Rectangle_221" data-name="Rectangle 221" width="173.403" height="84.356" transform="translate(0 0)" fill="none"/>
    </clipPath>
  </defs>
  <g id="Group_1145" data-name="Group 1145" clip-path="url(#clip-path)">
    <path id="Path_163" data-name="Path 163" d="M1189.849,487.318l-1.7-1.212a1.638,1.638,0,0,0-1.9,2.667l1.7,1.212a1.638,1.638,0,0,0,1.9-2.667" transform="translate(-1106.215 -453.288)" fill="#333"/>
    <path id="Path_164" data-name="Path 164" d="M346.635,684.2a1.638,1.638,0,0,0-2.252-.542,15.875,15.875,0,0,0-7.844,12.359,19.2,19.2,0,0,0,.631,7.119,1.638,1.638,0,0,0,3.118-1.005,15.882,15.882,0,0,1-.488-5.793,12.555,12.555,0,0,1,6.293-9.885,1.638,1.638,0,0,0,.542-2.252" transform="translate(-313.933 -637.683)" fill="#333"/>
    <path id="Path_165" data-name="Path 165" d="M2169.469,736.1a1.638,1.638,0,0,0,2.313-.136,15.875,15.875,0,0,0,3.908-14.106,19.2,19.2,0,0,0-2.675-6.627,1.638,1.638,0,0,0-2.69,1.869,15.883,15.883,0,0,1,2.153,5.4,12.554,12.554,0,0,1-3.145,11.289,1.638,1.638,0,0,0,.136,2.312" transform="translate(-2023.762 -666.705)" fill="#333"/>
    <path id="Path_166" data-name="Path 166" d="M171.727,81.079H143.555A25.681,25.681,0,0,0,154.169,71.4a23.943,23.943,0,0,0,3.263-8.748,25.311,25.311,0,0,0-35.515-27.28L107.639,8a5.954,5.954,0,0,0,3.11-2.658,3.517,3.517,0,0,0-.141-3.209A3.827,3.827,0,0,0,108.2.173c-2.728-.773-6.26,1.269-6.654,1.5a1.638,1.638,0,0,0,1.678,2.813c1.07-.635,3.108-1.444,4.085-1.165a.559.559,0,0,1,.39.32c.117.224.086.291.072.323-.245.534-1.7,1.232-2.839,1.5a1.642,1.642,0,0,0-1.268,1.484,1.667,1.667,0,0,0,.2.895l1.353,2.594L88.686,20.107a1.643,1.643,0,0,0-.793.463L68.54,31.887,61.123,15.782c3.515-.958,8.2-2.226,9.731-2.1a1.638,1.638,0,1,0,.268-3.265c-1.985-.163-5.671.789-11.067,2.26a52.823,52.823,0,0,1-6.819,1.614c-1.763.053-4.137-1.514-4.9-2.121a1.638,1.638,0,0,0-2.041,2.562c.369.295,3.649,2.836,6.866,2.836l.172,0a24.426,24.426,0,0,0,4.584-.921L69.4,41.574a4.073,4.073,0,0,0-1.542,3.3L59.7,48.721a23.435,23.435,0,0,0-3.818-4.667A23.3,23.3,0,0,0,23.9,77.933a23.489,23.489,0,0,0,4.176,3.145H1.677a1.707,1.707,0,0,0-1.67,1.49,1.638,1.638,0,0,0,1.631,1.785h69.6a1.707,1.707,0,0,0,1.67-1.49,1.638,1.638,0,0,0-1.631-1.785H51.713a23.4,23.4,0,0,0,5.117-4.091,23.121,23.121,0,0,0,6.3-14.335l1.581.076a7.6,7.6,0,0,0,7.112,4.942q.112,0,.224,0a7.657,7.657,0,0,0,1.581-.212l1.432,2.52-2.131,1.556a1.664,1.664,0,0,0-.486,2.164,1.638,1.638,0,0,0,2.385.5l2.961-2.162a1.628,1.628,0,0,0,.753-.55l4.7-3.428a1.638,1.638,0,0,0-1.932-2.646l-3.584,2.616-1.15-2.024a7.7,7.7,0,0,0,.778-.717,7.545,7.545,0,0,0,2.069-5.432h0a7.622,7.622,0,0,0-.125-1.171,29.013,29.013,0,0,0,7.352-10.267h.07a4.074,4.074,0,0,0,2.961-6.743c.02-.028.04-.057.058-.087L107,13.864l12.034,23.074a25.336,25.336,0,0,0-11.791,22.2,25.342,25.342,0,0,0,14.215,21.939h-17.9a1.707,1.707,0,0,0-1.67,1.49,1.638,1.638,0,0,0,1.631,1.785h68.243a1.638,1.638,0,0,0,1.631-1.785,1.707,1.707,0,0,0-1.67-1.49M72.51,45.316a.8.8,0,0,1-1.382-.52.774.774,0,0,1,.414-.7.733.733,0,0,1,.387-.135.8.8,0,0,1,.582,1.35m-3.257,2.523a4.083,4.083,0,0,0,1.338.778,23.688,23.688,0,0,1,.33,3.922,7.606,7.606,0,0,0-6.654,6.89l-1.135-.054a23.214,23.214,0,0,0-1.9-7.752ZM47.1,58.6c-.03-.09-.062-.179-.1-.267l11.264-5.314a19.932,19.932,0,0,1,1.566,6.194Zm-2.89,2.268a4.319,4.319,0,1,1-7.484-2.812,4.407,4.407,0,0,1,2.8-1.365,3.638,3.638,0,0,1,.371-.018,4.324,4.324,0,0,1,4.315,4.195M40.465,81.007c-.2.006-.393.009-.589.009a20.022,20.022,0,0,1-.56-40.035c.2-.006.393-.009.589-.009a19.882,19.882,0,0,1,13.73,5.464,20.162,20.162,0,0,1,3.081,3.694L45.194,55.566a7.591,7.591,0,1,0-5.309,13.022q.112,0,.224,0A7.6,7.6,0,0,0,47.432,61.9l12.424.6A20.05,20.05,0,0,1,40.465,81.007m32.816-20.8a1.638,1.638,0,0,0-2.848,1.618l1.457,2.565h0a4.319,4.319,0,0,1-.184-8.635l.126,0a4.324,4.324,0,0,1,4.315,4.195h0a4.292,4.292,0,0,1-1.227,3.141h0Zm4.627-4.679a7.631,7.631,0,0,0-3.718-2.672,26.4,26.4,0,0,0-.325-4.506A4.1,4.1,0,0,0,75.8,46.037l7.1.014a4.087,4.087,0,0,0,.732,1.085,26.568,26.568,0,0,1-5.724,8.4m8.716-10.386a.8.8,0,0,1-.823-.839.763.763,0,0,1,.405-.622.747.747,0,0,1,.395-.14.8.8,0,0,1,.023,1.6m.333-5.287a1.634,1.634,0,0,0-.183.416c-.1,0-.192-.006-.29,0a4.081,4.081,0,0,0-3.643,2.5L78,42.765l1.159-1.3a1.638,1.638,0,0,0,1.308-2.932l-1.7-1.212a1.637,1.637,0,0,0-2.307,2.249l-1.879,2.11a4.078,4.078,0,0,0-1.961-.928l-2.707-5.878c.025-.013.05-.024.074-.038l16-9.355-.955,2.665c-.011.031-.019.061-.028.092a1.637,1.637,0,0,0-1.436,2.9l1.7,1.212a1.638,1.638,0,0,0,2.26-2.318,1.629,1.629,0,0,0,.588-.778l2.273-6.344,7.5-4.384A1.062,1.062,0,0,1,99.324,20Zm23.561,19.108a21.854,21.854,0,0,1,5.994-15.733,22.152,22.152,0,0,1,4.047-3.377l6.75,12.944c-.11.1-.219.21-.324.321A7.594,7.594,0,0,0,132.5,65.929h.025a7.593,7.593,0,0,0,7.572-7.812h0a7.6,7.6,0,0,0-9.971-7l-6.694-12.837a21.961,21.961,0,0,1,8.443-1.937c.217-.006.432-.009.648-.009a22,22,0,0,1,.615,43.987c-.215.006-.427.009-.64.009a22.026,22.026,0,0,1-21.98-21.367m21.865-4.948.126,0a4.32,4.32,0,1,1-.126,0" transform="translate(0 0.001)" fill="#333"/>
  </g>
</svg>
