<svg xmlns="http://www.w3.org/2000/svg" width="51.193" height="51.193" viewBox="0 0 51.193 51.193">
  <path id="Exclusion_3" data-name="Exclusion 3" d="M25.6,51.193a25.786,25.786,0,0,1-5.159-.52,25.456,25.456,0,0,1-9.153-3.851A25.671,25.671,0,0,1,2.011,35.56a25.468,25.468,0,0,1-1.491-4.8,25.846,25.846,0,0,1,0-10.317,25.456,25.456,0,0,1,3.851-9.153A25.671,25.671,0,0,1,15.633,2.011,25.468,25.468,0,0,1,20.438.52a25.846,25.846,0,0,1,10.317,0,25.456,25.456,0,0,1,9.153,3.851,25.671,25.671,0,0,1,9.274,11.262,25.468,25.468,0,0,1,1.491,4.8,25.846,25.846,0,0,1,0,10.317,25.456,25.456,0,0,1-3.851,9.153A25.671,25.671,0,0,1,35.56,49.182a25.469,25.469,0,0,1-4.8,1.491A25.786,25.786,0,0,1,25.6,51.193ZM23.3,28.781h0l8.709,11.645h9.43L28.518,23.147l11.46-12.381H37.207L27.28,21.491,19.259,10.767H9.829L22.064,27.126,9.752,40.426h2.771L23.3,28.781Zm14.063,9.6H33.034L13.9,12.808h4.332L37.366,38.385Z" fill="#fff"/>
</svg>
