<svg id="Group_1148" data-name="Group 1148" xmlns="http://www.w3.org/2000/svg" xmlns:xlink="http://www.w3.org/1999/xlink" width="225.578" height="207.435" viewBox="0 0 225.578 207.435">
  <defs>
    <clipPath id="clip-path">
      <rect id="Rectangle_220" data-name="Rectangle 220" width="225.578" height="207.435" fill="none"/>
    </clipPath>
    <clipPath id="clip-path-2">
      <rect id="Rectangle_218" data-name="Rectangle 218" width="113.46" height="104.363" fill="#333"/>
    </clipPath>
  </defs>
  <g id="Group_1142" data-name="Group 1142" transform="translate(0 0)">
    <g id="Group_1140" data-name="Group 1140" transform="translate(0 0)" clip-path="url(#clip-path)">
      <path id="Path_161" data-name="Path 161" d="M17.68,207.431H207.9c9.749,0,17.681-9.367,17.681-20.881V81.874c0-11.512-7.932-20.879-17.681-20.879H167.8V46.749a17.7,17.7,0,0,0-17.681-17.679H131.673V19.314a19.318,19.318,0,0,0-38.636,0v9.755H75.461A17.7,17.7,0,0,0,57.78,46.749V60.995H17.68C7.931,60.995,0,70.362,0,81.874V186.551c0,11.514,7.931,20.881,17.68,20.881M112.355,3.908a15.424,15.424,0,0,1,15.406,15.406V57.081H96.948V19.314A15.424,15.424,0,0,1,112.355,3.908M94.993,60.992h34.725a1.956,1.956,0,0,0,1.956-1.956V48.994a8.937,8.937,0,0,1,7.988,8.875V60.2a8.937,8.937,0,0,1-8.926,8.926H94.842A8.936,8.936,0,0,1,85.917,60.2V57.869a8.94,8.94,0,0,1,7.12-8.741v9.909a1.956,1.956,0,0,0,1.956,1.956M3.912,81.874c0-9.355,6.176-16.968,13.768-16.968H59.736a1.956,1.956,0,0,0,1.956-1.956v-16.2A13.783,13.783,0,0,1,75.461,32.981H93.037V45.174A12.846,12.846,0,0,0,82,57.869V60.2A12.852,12.852,0,0,0,94.842,73.042h35.893A12.853,12.853,0,0,0,143.573,60.2V57.869a12.845,12.845,0,0,0-11.9-12.789v-12.1h18.444a13.783,13.783,0,0,1,13.769,13.768v16.2a1.956,1.956,0,0,0,1.956,1.956H207.9c7.592,0,13.769,7.612,13.769,16.968V186.551c0,9.357-6.176,16.969-13.769,16.969H17.68c-7.592,0-13.768-7.612-13.768-16.969Z" transform="translate(0 0.004)" fill="#333"/>
      <path id="Path_162" data-name="Path 162" d="M1714.382,194.1a9.818,9.818,0,1,0-9.818-9.818,9.829,9.829,0,0,0,9.818,9.818m0-15.725a5.906,5.906,0,1,1-5.906,5.907,5.914,5.914,0,0,1,5.906-5.907" transform="translate(-1602.027 -163.969)" fill="#333"/>
    </g>
  </g>
  <g id="Group_1123" data-name="Group 1123" transform="translate(55.935 79.935)">
    <g id="Group_1122" data-name="Group 1122" clip-path="url(#clip-path-2)">
      <path id="Path_151" data-name="Path 151" d="M250.681,129.083a8.091,8.091,0,1,1,2.484-.393,8.1,8.1,0,0,1-2.484.393m0-12.673a4.589,4.589,0,1,0,2.081.5,4.592,4.592,0,0,0-2.081-.5" transform="translate(-185.852 -86.5)" fill="#333"/>
      <path id="Path_152" data-name="Path 152" d="M169.958,223.576a5.64,5.64,0,0,1-4.541-2.306l-11.226-15.45L140.32,194.893a1.773,1.773,0,0,1-.176-.159,9.029,9.029,0,0,1-1.457-10.592l6.238-12.172-3.232-1.442-6.674,8.573a5.447,5.447,0,0,1-8.8-6.415c.017-.024.035-.047.053-.069l9.422-11.739a5.92,5.92,0,0,1,7.138-1.943L166.1,169.16l4.947-8.414a5.469,5.469,0,0,1,9.623,5.2l-.017.031-7.418,13.191a5.95,5.95,0,0,1-7.83,2.529l-4.765-2.108-6.56,10.241,8.354,7.989a5.956,5.956,0,0,1,.97,1.04l.019.026L174.5,214.657a5.619,5.619,0,0,1-4.545,8.919m-27.367-31.36,13.961,11a1.756,1.756,0,0,1,.333.347L168.252,219.2a2.111,2.111,0,0,0,3.408-2.493l-.018-.026-11.083-15.768a2.454,2.454,0,0,0-.413-.434c-.033-.028-.066-.057-.1-.087l-9.44-9.028a1.754,1.754,0,0,1-.265-2.214l8.15-12.723a1.754,1.754,0,0,1,2.187-.658l6.169,2.73.065.03a2.417,2.417,0,0,0,1.076.252,2.444,2.444,0,0,0,2.158-1.291l.017-.031,7.417-13.187a1.961,1.961,0,0,0-3.465-1.84q-.016.03-.034.06l-5.753,9.785a1.754,1.754,0,0,1-2.217.717l-24.683-10.846a2.428,2.428,0,0,0-2.928.82c-.017.024-.035.047-.053.069l-9.415,11.73a1.939,1.939,0,0,0,3.163,2.244l.037-.049,7.534-9.679a1.754,1.754,0,0,1,2.1-.524l6.177,2.755a1.754,1.754,0,0,1,.847,2.4L141.8,185.758l-.018.035a5.533,5.533,0,0,0,.81,6.423" transform="translate(-95.907 -120.967)" fill="#333"/>
      <path id="Path_153" data-name="Path 153" d="M109.528,320.43a5.985,5.985,0,0,1-3.623-1.229L91.5,308.15a5.953,5.953,0,0,1,7.246-9.446l9.113,6.99,1.067-1.617a1.754,1.754,0,1,1,2.928,1.932l-2.1,3.189a1.754,1.754,0,0,1-2.531.425L96.61,301.487a2.445,2.445,0,1,0-2.976,3.879l14.406,11.051a2.445,2.445,0,0,0,3.606-.718c.011-.02.024-.04.036-.061l3.865-6.116a1.754,1.754,0,1,1,2.965,1.874l-3.848,6.089a5.951,5.951,0,0,1-5.137,2.944" transform="translate(-68.318 -227.909)" fill="#333"/>
      <path id="Path_154" data-name="Path 154" d="M255.352,434.775H210.815a1.754,1.754,0,0,1,0-3.508h44.537a1.754,1.754,0,0,1,0,3.508" transform="translate(-160.17 -330.412)" fill="#333"/>
      <path id="Path_155" data-name="Path 155" d="M75.053,434.775H59.218a1.754,1.754,0,1,1,0-3.508H75.053a1.754,1.754,0,0,1,0,3.508" transform="translate(-44.026 -330.412)" fill="#333"/>
      <path id="Path_156" data-name="Path 156" d="M1.755,31.27a1.754,1.754,0,0,1-1.1-3.118L15.665,16.007a1.755,1.755,0,0,1,2.061-.106l4.511,2.942L39.593.547A1.728,1.728,0,0,1,40.875,0a1.754,1.754,0,0,1,1.276.561l15.4,16.6,10.584-6.843a1.754,1.754,0,0,1,2.118.163l7.051,6.276a1.754,1.754,0,1,1-2.332,2.62l-6.054-5.389-10.7,6.917a1.754,1.754,0,0,1-2.238-.28L40.851,4.318l-17.075,18a1.754,1.754,0,0,1-2.231.262l-4.666-3.043L2.857,30.879a1.747,1.747,0,0,1-1.1.39" transform="translate(0 0)" fill="#333"/>
      <path id="Path_157" data-name="Path 157" d="M55.816,48.526a1.754,1.754,0,0,1-1.135-3.092L75.6,27.692l-1.858-5.4A1.754,1.754,0,0,1,75.081,20l8.065-1.507L80.551,2.027a1.754,1.754,0,1,1,3.465-.546l2.859,18.152a1.754,1.754,0,0,1-1.41,2l-7.742,1.446,1.586,4.608a1.754,1.754,0,0,1-.524,1.909L56.949,48.11a1.746,1.746,0,0,1-1.134.416" transform="translate(-41.418 0)" fill="#333"/>
      <path id="Path_158" data-name="Path 158" d="M342.8,44.838a1.748,1.748,0,0,1-.924-.264L322.66,32.643,304.343,44.554a1.754,1.754,0,0,1-1.912-2.941l19.252-12.519a1.754,1.754,0,0,1,1.882-.02l20.16,12.519a1.754,1.754,0,0,1-.927,3.244" transform="translate(-231.093 -22.073)" fill="#333"/>
    </g>
  </g>
</svg>
